HIERARCHY
ROOT Hips
{
 OFFSET 0.000000 0.000000 0.000000
 CHANNELS 6 Xposition Yposition Zposition Yrotation Xrotation Zrotation
 JOINT Chest
 {
  OFFSET 0.000000 9.585900 0.002600
  CHANNELS 3 Yrotation Xrotation Zrotation
  JOINT Chest2
  {
   OFFSET 0.000000 9.601200 -0.005300
   CHANNELS 3 Yrotation Xrotation Zrotation
   JOINT Chest3
   {
    OFFSET 0.000000 9.561800 0.000000
    CHANNELS 3 Yrotation Xrotation Zrotation
    JOINT Chest4
    {
     OFFSET 0.000000 9.552100 0.000000
     CHANNELS 3 Yrotation Xrotation Zrotation
     JOINT Neck
     {
      OFFSET 0.000000 14.453000 0.000000
      CHANNELS 3 Yrotation Xrotation Zrotation
      JOINT Head
      {
       OFFSET 0.000000 8.936500 -0.011300
       CHANNELS 3 Yrotation Xrotation Zrotation
       End Site
       {
        OFFSET 0.000000 17.073600 -0.006000
       }
      }
     }
     JOINT RightCollar
     {
      OFFSET -2.921100 9.558500 0.000000
      CHANNELS 3 Yrotation Xrotation Zrotation
      JOINT RightShoulder
      {
       OFFSET -13.519700 0.000000 0.000000
       CHANNELS 3 Yrotation Xrotation Zrotation
       JOINT RightElbow
       {
        OFFSET 0.000000 -29.696600 0.000000
        CHANNELS 3 Yrotation Xrotation Zrotation
        JOINT RightWrist
        {
         OFFSET 0.000000 -24.004700 0.000000
         CHANNELS 3 Yrotation Xrotation Zrotation
         End Site
         {
          OFFSET 0.000000 -17.728500 0.000000
         }
        }
       }
      }
     }
     JOINT LeftCollar
     {
      OFFSET 2.921100 9.558500 0.000000
      CHANNELS 3 Yrotation Xrotation Zrotation
      JOINT LeftShoulder
      {
       OFFSET 13.519700 0.000000 0.000000
       CHANNELS 3 Yrotation Xrotation Zrotation
       JOINT LeftElbow
       {
        OFFSET 0.000000 -29.696600 0.000000
        CHANNELS 3 Yrotation Xrotation Zrotation
        JOINT LeftWrist
        {
         OFFSET 0.000000 -24.004700 0.000000
         CHANNELS 3 Yrotation Xrotation Zrotation
         End Site
         {
          OFFSET 0.000000 -17.728500 0.000000
         }
        }
       }
      }
     }
    }
   }
  }
 }
 JOINT RightHip
 {
  OFFSET -7.771700 -0.012900 -0.001300
  CHANNELS 3 Yrotation Xrotation Zrotation
  JOINT RightKnee
  {
   OFFSET 0.000000 -40.869800 0.001200
   CHANNELS 3 Yrotation Xrotation Zrotation
   JOINT RightAnkle
   {
    OFFSET 0.000000 -39.717900 0.002100
    CHANNELS 3 Yrotation Xrotation Zrotation
    JOINT RightToe
    {
     OFFSET 0.000000 -4.965400 11.033500
     CHANNELS 3 Yrotation Xrotation Zrotation
     End Site
     {
      OFFSET 0.000000 -1.423100 5.872300
     }
    }
   }
  }
 }
 JOINT LeftHip
 {
  OFFSET 7.771700 -0.012900 -0.001300
  CHANNELS 3 Yrotation Xrotation Zrotation
  JOINT LeftKnee
  {
   OFFSET 0.000000 -40.869800 0.001200
   CHANNELS 3 Yrotation Xrotation Zrotation
   JOINT LeftAnkle
   {
    OFFSET 0.000000 -39.717900 0.002100
    CHANNELS 3 Yrotation Xrotation Zrotation
    JOINT LeftToe
    {
     OFFSET 0.000000 -4.965400 11.033500
     CHANNELS 3 Yrotation Xrotation Zrotation
     End Site
     {
      OFFSET 0.000000 -1.423100 5.872300
     }
    }
   }
  }
 }
}
MOTION
Frames: 5
Frame Time: 0.008333
-88.927901 62.098672 18.312777 173.290585 -50.122907 -1.538279 4.477841 26.664824 0.846837 0.689906 4.524272 0.140303 1.073310 7.186918 0.242682 3.553190 21.660501 1.219847 -0.512500 16.104301 1.836741 -1.641703 -5.854487 3.583036 4.631877 5.329710 4.791665 -2.026055 -10.413078 -15.234490 -122.000732 -58.126792 155.624711 10.069595 2.047593 13.529157 -9.469617 1.442224 -1.190978 -7.656629 -7.167806 19.026447 130.934789 -69.122239 -158.886158 -1.808814 1.195674 -16.297211 2.928364 -17.049398 -2.622746 -2.237732 59.925608 -5.377448 2.611895 -4.543592 10.423661 0.369631 -0.446538 0.226694 -3.949201 -13.432481 5.515081 30.016033 75.752550 32.185667 1.488352 -11.177522 -5.819236 0.171783 0.711771 0.079000
-88.929272 62.098982 18.313251 173.299109 -50.130654 -1.543623 4.476888 26.670329 0.849239 0.704756 4.517641 0.145970 1.075652 7.186156 0.240872 3.546606 21.665392 1.222789 -0.479709 16.104731 1.853380 -1.650893 -5.849655 3.595450 4.675972 5.303696 4.801914 -2.065947 -10.373937 -15.245909 -121.956065 -58.146340 155.595672 10.076644 2.026089 13.508002 -9.434942 1.454612 -1.168777 -7.557622 -7.146644 18.961103 130.986420 -69.114121 -159.006989 -1.810890 1.199440 -16.303108 2.927964 -17.042757 -2.617821 -2.249982 59.935194 -5.391864 2.609728 -4.574538 10.415314 0.366418 -0.459155 0.222095 -3.946838 -13.427009 5.516352 29.991002 75.751576 32.159730 1.496947 -11.171643 -5.825316 0.197376 0.712774 0.090175
-88.932585 62.099251 18.314006 173.309514 -50.137815 -1.538428 4.482677 26.670944 0.848490 0.702534 4.517710 0.147892 1.081211 7.185909 0.240916 3.539451 21.668835 1.224163 -0.469590 16.106855 1.862440 -1.542229 -5.835678 3.639143 4.677111 5.300136 4.805666 -2.057964 -10.354028 -15.255557 -121.957764 -58.147285 155.582853 10.052879 2.046336 13.519334 -9.398726 1.467306 -1.146296 -7.527272 -7.140337 18.917672 131.013826 -69.125245 -159.033941 -1.812446 1.198602 -16.313410 2.930632 -17.036078 -2.625469 -2.247238 59.946121 -5.395155 2.598079 -4.609017 10.409304 0.364855 -0.454776 0.224409 -3.945748 -13.420360 5.504941 29.991408 75.737725 32.148200 1.511986 -11.163400 -5.827257 0.219068 0.719269 0.100900
-88.936802 62.100137 18.314569 173.320963 -50.149369 -1.527573 4.501352 26.663139 0.862888 0.674493 4.535710 0.131230 1.118139 7.167958 0.258716 3.523102 21.678442 1.221261 -0.474523 16.115560 1.870376 -1.468093 -5.827724 3.667834 4.663224 5.303458 4.808740 -2.048206 -10.333939 -15.265848 -121.980411 -58.142601 155.581044 10.041709 2.071776 13.538035 -9.390525 1.485554 -1.132398 -7.485326 -7.130946 18.884175 131.057469 -69.137597 -159.071185 -1.811823 1.194979 -16.326723 2.934133 -17.025223 -2.640676 -2.215018 59.960159 -5.372654 2.570682 -4.642585 10.405699 0.364208 -0.438423 0.230857 -3.943201 -13.407940 5.488119 29.979679 75.724765 32.132257 1.480975 -11.161908 -5.819761 0.225930 0.725078 0.104309
-88.939529 62.100005 18.316579 173.324959 -50.152480 -1.519886 4.506645 26.657503 0.865962 0.678632 4.536077 0.133069 1.109471 7.172321 0.254088 3.565873 21.663546 1.238745 -0.476024 16.129088 1.884310 -1.475524 -5.822448 3.677429 4.645243 5.306087 4.812933 -2.053528 -10.307041 -15.278064 -121.972734 -58.143025 155.566060 10.049691 2.082600 13.541991 -9.428111 1.506678 -1.131876 -7.419334 -7.113332 18.865635 131.114432 -69.146837 -159.119824 -1.809327 1.191019 -16.338887 2.937730 -17.025671 -2.647993 -2.210487 59.970254 -5.372122 2.560399 -4.663809 10.405840 0.371849 -0.450351 0.221984 -3.938817 -13.404883 5.483165 29.954867 75.717357 32.104868 1.440894 -11.163547 -5.805000 0.218447 0.730321 0.101264
